<svg width="27" height="27" viewBox="0 0 27 27" fill="none" xmlns="http://www.w3.org/2000/svg">
<path d="M15.75 10.125C15.75 9.193 16.5055 8.43748 17.4375 8.43748C18.3695 8.43748 19.125 9.193 19.125 10.125C19.125 11.057 18.3695 11.8125 17.4375 11.8125C16.5055 11.8125 15.75 11.057 15.75 10.125Z" fill="#656565"/>
<path fill-rule="evenodd" clip-rule="evenodd" d="M8.17598 5.24086C11.7187 4.9329 15.2814 4.9329 18.8241 5.24086L20.5231 5.38855C22.1488 5.52987 23.4658 6.76697 23.7084 8.38066C24.2188 11.7745 24.2188 15.2255 23.7084 18.6193C23.4658 20.233 22.1488 21.4701 20.5231 21.6114L18.8241 21.7591C15.2814 22.0671 11.7187 22.0671 8.17598 21.7591L6.47697 21.6114C4.85127 21.4701 3.53426 20.233 3.2916 18.6193C2.78126 15.2255 2.78126 11.7745 3.2916 8.38066C3.53426 6.76697 4.85127 5.52987 6.47697 5.38855L8.17598 5.24086ZM18.6779 6.92202C15.2325 6.62251 11.7676 6.62251 8.32212 6.92202L6.62311 7.06971C5.77449 7.14348 5.08701 7.78925 4.96034 8.6316C4.67061 10.5583 4.55384 12.5044 4.61004 14.4467L8.96588 10.0909C9.1302 9.92655 9.35501 9.83727 9.58729 9.8441C9.81957 9.85092 10.0387 9.95325 10.1931 10.1269L14.3235 14.7736L17.1707 13.8245C17.4891 13.7184 17.8401 13.8111 18.0647 14.0605L22.0237 18.4594C22.0297 18.4294 22.0351 18.399 22.0397 18.3684C22.525 15.1409 22.525 11.859 22.0397 8.6316C21.913 7.78925 21.2255 7.14348 20.3769 7.06971L18.6779 6.92202ZM20.9477 19.7865L17.18 15.6002L14.3293 16.5504C14.0091 16.6572 13.6561 16.5628 13.4319 16.3105L9.52638 11.9169L4.75223 16.691C4.80711 17.2514 4.87648 17.8107 4.96034 18.3684C5.08701 19.2107 5.77449 19.8565 6.62311 19.9302L8.32212 20.0779C11.7676 20.3774 15.2325 20.3774 18.6779 20.0779L20.3769 19.9302C20.578 19.9128 20.77 19.8632 20.9477 19.7865Z" fill="#656565"/>
</svg>
